<mxfile host="app.diagrams.net" agent="Mozilla/5.0 (Windows NT 10.0; Win64; x64) AppleWebKit/537.36 (KHTML, like Gecko) Chrome/138.0.0.0 Safari/537.36" version="28.0.7">
  <diagram name="Page-1" id="PywV8A5e1CfOtIUZa0yN">
    <mxGraphModel dx="1042" dy="1674" grid="1" gridSize="10" guides="1" tooltips="1" connect="1" arrows="1" fold="1" page="1" pageScale="1" pageWidth="850" pageHeight="1100" math="0" shadow="0">
      <root>
        <mxCell id="0" />
        <mxCell id="1" parent="0" />
        <mxCell id="pyTkr3iDTCvJTYTdv11U-1" value="&lt;b&gt;&lt;font style=&quot;font-size: 9px;&quot;&gt;Chilling&lt;/font&gt;&lt;/b&gt;" style="ellipse;whiteSpace=wrap;html=1;" parent="1" vertex="1">
          <mxGeometry x="530" y="-550" width="120" height="30" as="geometry" />
        </mxCell>
        <mxCell id="zSebhdD4SlKoql86wcFb-31" value="" style="group" vertex="1" connectable="0" parent="1">
          <mxGeometry x="440" y="-290" width="125" height="270" as="geometry" />
        </mxCell>
        <mxCell id="zSebhdD4SlKoql86wcFb-4" value="" style="ellipse;whiteSpace=wrap;html=1;" vertex="1" parent="zSebhdD4SlKoql86wcFb-31">
          <mxGeometry x="5" y="5" width="120" height="20" as="geometry" />
        </mxCell>
        <mxCell id="zSebhdD4SlKoql86wcFb-5" value="" style="ellipse;whiteSpace=wrap;html=1;" vertex="1" parent="zSebhdD4SlKoql86wcFb-31">
          <mxGeometry x="5" y="85" width="120" height="20" as="geometry" />
        </mxCell>
        <mxCell id="zSebhdD4SlKoql86wcFb-6" value="" style="ellipse;whiteSpace=wrap;html=1;" vertex="1" parent="zSebhdD4SlKoql86wcFb-31">
          <mxGeometry x="5" y="45" width="120" height="20" as="geometry" />
        </mxCell>
        <mxCell id="zSebhdD4SlKoql86wcFb-7" value="" style="ellipse;whiteSpace=wrap;html=1;" vertex="1" parent="zSebhdD4SlKoql86wcFb-31">
          <mxGeometry x="5" y="125" width="120" height="20" as="geometry" />
        </mxCell>
        <mxCell id="zSebhdD4SlKoql86wcFb-9" value="" style="ellipse;whiteSpace=wrap;html=1;" vertex="1" parent="zSebhdD4SlKoql86wcFb-31">
          <mxGeometry x="5" y="205" width="120" height="20" as="geometry" />
        </mxCell>
        <mxCell id="zSebhdD4SlKoql86wcFb-10" value="" style="ellipse;whiteSpace=wrap;html=1;" vertex="1" parent="zSebhdD4SlKoql86wcFb-31">
          <mxGeometry x="5" y="165" width="120" height="20" as="geometry" />
        </mxCell>
        <mxCell id="zSebhdD4SlKoql86wcFb-11" value="" style="ellipse;whiteSpace=wrap;html=1;" vertex="1" parent="zSebhdD4SlKoql86wcFb-31">
          <mxGeometry x="5" y="245" width="120" height="20" as="geometry" />
        </mxCell>
        <mxCell id="zSebhdD4SlKoql86wcFb-13" value="&lt;b&gt;&lt;font style=&quot;font-size: 9px;&quot;&gt;Reducing Heat Load&lt;/font&gt;&lt;/b&gt;" style="text;html=1;align=center;verticalAlign=middle;resizable=0;points=[];autosize=1;strokeColor=none;fillColor=none;" vertex="1" parent="zSebhdD4SlKoql86wcFb-31">
          <mxGeometry x="10" width="110" height="30" as="geometry" />
        </mxCell>
        <mxCell id="zSebhdD4SlKoql86wcFb-14" value="&lt;b&gt;&lt;font style=&quot;font-size: 9px;&quot;&gt;Interfacing to support&lt;/font&gt;&lt;/b&gt;" style="text;html=1;align=center;verticalAlign=middle;resizable=0;points=[];autosize=1;strokeColor=none;fillColor=none;" vertex="1" parent="zSebhdD4SlKoql86wcFb-31">
          <mxGeometry y="40" width="120" height="30" as="geometry" />
        </mxCell>
        <mxCell id="zSebhdD4SlKoql86wcFb-15" value="&lt;b&gt;&lt;font style=&quot;font-size: 9px;&quot;&gt;Connecting&lt;/font&gt;&lt;/b&gt;" style="text;html=1;align=center;verticalAlign=middle;resizable=0;points=[];autosize=1;strokeColor=none;fillColor=none;" vertex="1" parent="zSebhdD4SlKoql86wcFb-31">
          <mxGeometry x="25" y="80" width="70" height="30" as="geometry" />
        </mxCell>
        <mxCell id="zSebhdD4SlKoql86wcFb-16" value="&lt;font style=&quot;font-size: 9px;&quot;&gt;&lt;b&gt;Powering&lt;/b&gt;&lt;/font&gt;" style="text;html=1;align=center;verticalAlign=middle;resizable=0;points=[];autosize=1;strokeColor=none;fillColor=none;" vertex="1" parent="zSebhdD4SlKoql86wcFb-31">
          <mxGeometry x="30" y="120" width="60" height="30" as="geometry" />
        </mxCell>
        <mxCell id="zSebhdD4SlKoql86wcFb-17" value="&lt;b&gt;&lt;font style=&quot;font-size: 9px;&quot;&gt;Regurating Temp&lt;/font&gt;&lt;/b&gt;" style="text;html=1;align=center;verticalAlign=middle;resizable=0;points=[];autosize=1;strokeColor=none;fillColor=none;" vertex="1" parent="zSebhdD4SlKoql86wcFb-31">
          <mxGeometry x="15" y="160" width="100" height="30" as="geometry" />
        </mxCell>
        <mxCell id="zSebhdD4SlKoql86wcFb-18" value="&lt;font style=&quot;font-size: 9px;&quot;&gt;&lt;b&gt;Operator Acccessing&lt;/b&gt;&lt;/font&gt;" style="text;html=1;align=center;verticalAlign=middle;resizable=0;points=[];autosize=1;strokeColor=none;fillColor=none;" vertex="1" parent="zSebhdD4SlKoql86wcFb-31">
          <mxGeometry x="10" y="200" width="110" height="30" as="geometry" />
        </mxCell>
        <mxCell id="zSebhdD4SlKoql86wcFb-19" value="&lt;font style=&quot;font-size: 9px;&quot;&gt;&lt;b&gt;Operator Observing&lt;/b&gt;&lt;/font&gt;" style="text;html=1;align=center;verticalAlign=middle;resizable=0;points=[];autosize=1;strokeColor=none;fillColor=none;" vertex="1" parent="zSebhdD4SlKoql86wcFb-31">
          <mxGeometry x="10" y="240" width="110" height="30" as="geometry" />
        </mxCell>
        <mxCell id="zSebhdD4SlKoql86wcFb-71" value="" style="group" vertex="1" connectable="0" parent="1">
          <mxGeometry x="180" y="-550" width="420" height="527.5" as="geometry" />
        </mxCell>
        <mxCell id="zSebhdD4SlKoql86wcFb-1" value="" style="ellipse;whiteSpace=wrap;html=1;" vertex="1" parent="zSebhdD4SlKoql86wcFb-71">
          <mxGeometry x="275" y="203.75" width="120" height="20" as="geometry" />
        </mxCell>
        <mxCell id="zSebhdD4SlKoql86wcFb-2" value="" style="ellipse;whiteSpace=wrap;html=1;" vertex="1" parent="zSebhdD4SlKoql86wcFb-71">
          <mxGeometry x="265" y="132.5" width="120" height="25" as="geometry" />
        </mxCell>
        <mxCell id="zSebhdD4SlKoql86wcFb-8" value="&lt;font style=&quot;font-size: 9px;&quot;&gt;&lt;b style=&quot;&quot;&gt;Holding Food&lt;/b&gt;&lt;/font&gt;" style="text;html=1;align=center;verticalAlign=middle;resizable=0;points=[];autosize=1;strokeColor=none;fillColor=none;" vertex="1" parent="zSebhdD4SlKoql86wcFb-71">
          <mxGeometry x="285" y="132.5" width="80" height="30" as="geometry" />
        </mxCell>
        <mxCell id="zSebhdD4SlKoql86wcFb-12" value="&lt;font style=&quot;font-size: 9px;&quot;&gt;&lt;b style=&quot;&quot;&gt;Exchanging Heat&lt;/b&gt;&lt;/font&gt;" style="text;html=1;align=center;verticalAlign=middle;resizable=0;points=[];autosize=1;strokeColor=none;fillColor=none;" vertex="1" parent="zSebhdD4SlKoql86wcFb-71">
          <mxGeometry x="280" y="200" width="100" height="30" as="geometry" />
        </mxCell>
        <mxCell id="zSebhdD4SlKoql86wcFb-20" value="Racks" style="rounded=0;whiteSpace=wrap;html=1;" vertex="1" parent="zSebhdD4SlKoql86wcFb-71">
          <mxGeometry x="90" y="132.5" width="90" height="27.5" as="geometry" />
        </mxCell>
        <mxCell id="zSebhdD4SlKoql86wcFb-21" value="Air" style="rounded=0;whiteSpace=wrap;html=1;" vertex="1" parent="zSebhdD4SlKoql86wcFb-71">
          <mxGeometry x="90" y="176.25" width="90" height="27.5" as="geometry" />
        </mxCell>
        <mxCell id="zSebhdD4SlKoql86wcFb-22" value="Freon Loop" style="rounded=0;whiteSpace=wrap;html=1;" vertex="1" parent="zSebhdD4SlKoql86wcFb-71">
          <mxGeometry x="90" y="216.25" width="90" height="27.5" as="geometry" />
        </mxCell>
        <mxCell id="zSebhdD4SlKoql86wcFb-23" value="Insulation" style="rounded=0;whiteSpace=wrap;html=1;" vertex="1" parent="zSebhdD4SlKoql86wcFb-71">
          <mxGeometry x="90" y="256.25" width="90" height="27.5" as="geometry" />
        </mxCell>
        <mxCell id="zSebhdD4SlKoql86wcFb-24" value="Feet/Roller" style="rounded=0;whiteSpace=wrap;html=1;" vertex="1" parent="zSebhdD4SlKoql86wcFb-71">
          <mxGeometry x="90" y="296.25" width="90" height="27.5" as="geometry" />
        </mxCell>
        <mxCell id="zSebhdD4SlKoql86wcFb-25" value="Frame" style="rounded=0;whiteSpace=wrap;html=1;" vertex="1" parent="zSebhdD4SlKoql86wcFb-71">
          <mxGeometry x="90" y="336.25" width="90" height="27.5" as="geometry" />
        </mxCell>
        <mxCell id="zSebhdD4SlKoql86wcFb-26" value="Electrical Motor" style="rounded=0;whiteSpace=wrap;html=1;" vertex="1" parent="zSebhdD4SlKoql86wcFb-71">
          <mxGeometry x="90" y="376.25" width="90" height="27.5" as="geometry" />
        </mxCell>
        <mxCell id="zSebhdD4SlKoql86wcFb-27" value="Sensor/Controller" style="rounded=0;whiteSpace=wrap;html=1;" vertex="1" parent="zSebhdD4SlKoql86wcFb-71">
          <mxGeometry x="90" y="416.25" width="90" height="27.5" as="geometry" />
        </mxCell>
        <mxCell id="zSebhdD4SlKoql86wcFb-28" value="Door" style="rounded=0;whiteSpace=wrap;html=1;" vertex="1" parent="zSebhdD4SlKoql86wcFb-71">
          <mxGeometry x="90" y="456.25" width="90" height="27.5" as="geometry" />
        </mxCell>
        <mxCell id="zSebhdD4SlKoql86wcFb-29" value="Light" style="rounded=0;whiteSpace=wrap;html=1;" vertex="1" parent="zSebhdD4SlKoql86wcFb-71">
          <mxGeometry x="90" y="500" width="90" height="27.5" as="geometry" />
        </mxCell>
        <mxCell id="zSebhdD4SlKoql86wcFb-32" value="" style="endArrow=none;html=1;rounded=0;entryX=0;entryY=0.5;entryDx=0;entryDy=0;" edge="1" parent="zSebhdD4SlKoql86wcFb-71" target="zSebhdD4SlKoql86wcFb-5">
          <mxGeometry width="50" height="50" relative="1" as="geometry">
            <mxPoint x="180" y="355" as="sourcePoint" />
            <mxPoint x="270" y="310" as="targetPoint" />
          </mxGeometry>
        </mxCell>
        <mxCell id="zSebhdD4SlKoql86wcFb-33" value="" style="endArrow=none;html=1;rounded=0;entryX=0;entryY=0.5;entryDx=0;entryDy=0;" edge="1" parent="zSebhdD4SlKoql86wcFb-71">
          <mxGeometry width="50" height="50" relative="1" as="geometry">
            <mxPoint x="180" y="389.5" as="sourcePoint" />
            <mxPoint x="275" y="389.5" as="targetPoint" />
          </mxGeometry>
        </mxCell>
        <mxCell id="zSebhdD4SlKoql86wcFb-34" value="" style="endArrow=none;html=1;rounded=0;entryX=0;entryY=0.5;entryDx=0;entryDy=0;" edge="1" parent="zSebhdD4SlKoql86wcFb-71">
          <mxGeometry width="50" height="50" relative="1" as="geometry">
            <mxPoint x="180" y="429.5" as="sourcePoint" />
            <mxPoint x="275" y="429.5" as="targetPoint" />
          </mxGeometry>
        </mxCell>
        <mxCell id="zSebhdD4SlKoql86wcFb-35" value="" style="endArrow=none;html=1;rounded=0;entryX=0;entryY=0.5;entryDx=0;entryDy=0;" edge="1" parent="zSebhdD4SlKoql86wcFb-71">
          <mxGeometry width="50" height="50" relative="1" as="geometry">
            <mxPoint x="180" y="469.5" as="sourcePoint" />
            <mxPoint x="275" y="469.5" as="targetPoint" />
          </mxGeometry>
        </mxCell>
        <mxCell id="zSebhdD4SlKoql86wcFb-36" value="" style="endArrow=none;html=1;rounded=0;entryX=0;entryY=0.5;entryDx=0;entryDy=0;" edge="1" parent="zSebhdD4SlKoql86wcFb-71">
          <mxGeometry width="50" height="50" relative="1" as="geometry">
            <mxPoint x="180" y="513.25" as="sourcePoint" />
            <mxPoint x="275" y="513.25" as="targetPoint" />
          </mxGeometry>
        </mxCell>
        <mxCell id="zSebhdD4SlKoql86wcFb-37" value="" style="endArrow=none;html=1;rounded=0;entryX=-0.02;entryY=0.38;entryDx=0;entryDy=0;entryPerimeter=0;" edge="1" parent="zSebhdD4SlKoql86wcFb-71" target="zSebhdD4SlKoql86wcFb-12">
          <mxGeometry width="50" height="50" relative="1" as="geometry">
            <mxPoint x="180" y="189.5" as="sourcePoint" />
            <mxPoint x="265" y="189.5" as="targetPoint" />
          </mxGeometry>
        </mxCell>
        <mxCell id="zSebhdD4SlKoql86wcFb-38" value="" style="endArrow=none;html=1;rounded=0;entryX=0;entryY=0.5;entryDx=0;entryDy=0;" edge="1" parent="zSebhdD4SlKoql86wcFb-71">
          <mxGeometry width="50" height="50" relative="1" as="geometry">
            <mxPoint x="180" y="145.75" as="sourcePoint" />
            <mxPoint x="265" y="145.75" as="targetPoint" />
          </mxGeometry>
        </mxCell>
        <mxCell id="zSebhdD4SlKoql86wcFb-39" value="" style="endArrow=none;html=1;rounded=0;" edge="1" parent="zSebhdD4SlKoql86wcFb-71">
          <mxGeometry width="50" height="50" relative="1" as="geometry">
            <mxPoint x="180" y="230" as="sourcePoint" />
            <mxPoint x="290" y="220" as="targetPoint" />
          </mxGeometry>
        </mxCell>
        <mxCell id="zSebhdD4SlKoql86wcFb-40" value="" style="endArrow=none;html=1;rounded=0;entryX=0.167;entryY=0.667;entryDx=0;entryDy=0;entryPerimeter=0;" edge="1" parent="zSebhdD4SlKoql86wcFb-71" target="zSebhdD4SlKoql86wcFb-14">
          <mxGeometry width="50" height="50" relative="1" as="geometry">
            <mxPoint x="180" y="320" as="sourcePoint" />
            <mxPoint x="265" y="320" as="targetPoint" />
          </mxGeometry>
        </mxCell>
        <mxCell id="zSebhdD4SlKoql86wcFb-41" value="" style="endArrow=none;html=1;rounded=0;entryX=0;entryY=0.5;entryDx=0;entryDy=0;" edge="1" parent="zSebhdD4SlKoql86wcFb-71">
          <mxGeometry width="50" height="50" relative="1" as="geometry">
            <mxPoint x="180" y="269.5" as="sourcePoint" />
            <mxPoint x="265" y="269.5" as="targetPoint" />
          </mxGeometry>
        </mxCell>
        <mxCell id="zSebhdD4SlKoql86wcFb-42" value="" style="endArrow=none;html=1;rounded=0;" edge="1" parent="zSebhdD4SlKoql86wcFb-71">
          <mxGeometry width="50" height="50" relative="1" as="geometry">
            <mxPoint x="20" y="507.5" as="sourcePoint" />
            <mxPoint x="20" y="107.5" as="targetPoint" />
          </mxGeometry>
        </mxCell>
        <mxCell id="zSebhdD4SlKoql86wcFb-43" value="" style="endArrow=none;html=1;rounded=0;entryX=0.567;entryY=1.1;entryDx=0;entryDy=0;entryPerimeter=0;" edge="1" parent="zSebhdD4SlKoql86wcFb-71" target="pyTkr3iDTCvJTYTdv11U-1">
          <mxGeometry width="50" height="50" relative="1" as="geometry">
            <mxPoint x="420" y="520" as="sourcePoint" />
            <mxPoint x="420" y="110" as="targetPoint" />
          </mxGeometry>
        </mxCell>
        <mxCell id="zSebhdD4SlKoql86wcFb-44" value="" style="endArrow=none;html=1;rounded=0;" edge="1" parent="zSebhdD4SlKoql86wcFb-71">
          <mxGeometry width="50" height="50" relative="1" as="geometry">
            <mxPoint x="380" y="513.5" as="sourcePoint" />
            <mxPoint x="420" y="513.25" as="targetPoint" />
          </mxGeometry>
        </mxCell>
        <mxCell id="zSebhdD4SlKoql86wcFb-46" value="" style="endArrow=none;html=1;rounded=0;" edge="1" parent="zSebhdD4SlKoql86wcFb-71">
          <mxGeometry width="50" height="50" relative="1" as="geometry">
            <mxPoint x="20" y="510.25" as="sourcePoint" />
            <mxPoint x="90" y="510" as="targetPoint" />
          </mxGeometry>
        </mxCell>
        <mxCell id="zSebhdD4SlKoql86wcFb-47" value="" style="endArrow=none;html=1;rounded=0;" edge="1" parent="zSebhdD4SlKoql86wcFb-71">
          <mxGeometry width="50" height="50" relative="1" as="geometry">
            <mxPoint x="20" y="469.75" as="sourcePoint" />
            <mxPoint x="90" y="469.5" as="targetPoint" />
          </mxGeometry>
        </mxCell>
        <mxCell id="zSebhdD4SlKoql86wcFb-48" value="" style="endArrow=none;html=1;rounded=0;" edge="1" parent="zSebhdD4SlKoql86wcFb-71">
          <mxGeometry width="50" height="50" relative="1" as="geometry">
            <mxPoint x="20" y="429.75" as="sourcePoint" />
            <mxPoint x="90" y="429.5" as="targetPoint" />
          </mxGeometry>
        </mxCell>
        <mxCell id="zSebhdD4SlKoql86wcFb-49" value="" style="endArrow=none;html=1;rounded=0;" edge="1" parent="zSebhdD4SlKoql86wcFb-71">
          <mxGeometry width="50" height="50" relative="1" as="geometry">
            <mxPoint x="20" y="389.75" as="sourcePoint" />
            <mxPoint x="90" y="389.5" as="targetPoint" />
          </mxGeometry>
        </mxCell>
        <mxCell id="zSebhdD4SlKoql86wcFb-50" value="" style="endArrow=none;html=1;rounded=0;" edge="1" parent="zSebhdD4SlKoql86wcFb-71">
          <mxGeometry width="50" height="50" relative="1" as="geometry">
            <mxPoint x="20" y="349.75" as="sourcePoint" />
            <mxPoint x="90" y="349.5" as="targetPoint" />
          </mxGeometry>
        </mxCell>
        <mxCell id="zSebhdD4SlKoql86wcFb-51" value="" style="endArrow=none;html=1;rounded=0;" edge="1" parent="zSebhdD4SlKoql86wcFb-71">
          <mxGeometry width="50" height="50" relative="1" as="geometry">
            <mxPoint x="20" y="309.75" as="sourcePoint" />
            <mxPoint x="90" y="309.5" as="targetPoint" />
          </mxGeometry>
        </mxCell>
        <mxCell id="zSebhdD4SlKoql86wcFb-52" value="" style="endArrow=none;html=1;rounded=0;" edge="1" parent="zSebhdD4SlKoql86wcFb-71">
          <mxGeometry width="50" height="50" relative="1" as="geometry">
            <mxPoint x="20" y="269.75" as="sourcePoint" />
            <mxPoint x="90" y="269.5" as="targetPoint" />
          </mxGeometry>
        </mxCell>
        <mxCell id="zSebhdD4SlKoql86wcFb-53" value="" style="endArrow=none;html=1;rounded=0;" edge="1" parent="zSebhdD4SlKoql86wcFb-71">
          <mxGeometry width="50" height="50" relative="1" as="geometry">
            <mxPoint x="20" y="230.25" as="sourcePoint" />
            <mxPoint x="90" y="230" as="targetPoint" />
          </mxGeometry>
        </mxCell>
        <mxCell id="zSebhdD4SlKoql86wcFb-54" value="" style="endArrow=none;html=1;rounded=0;" edge="1" parent="zSebhdD4SlKoql86wcFb-71">
          <mxGeometry width="50" height="50" relative="1" as="geometry">
            <mxPoint x="20" y="189.75" as="sourcePoint" />
            <mxPoint x="90" y="189.5" as="targetPoint" />
          </mxGeometry>
        </mxCell>
        <mxCell id="zSebhdD4SlKoql86wcFb-55" value="" style="endArrow=none;html=1;rounded=0;" edge="1" parent="zSebhdD4SlKoql86wcFb-71">
          <mxGeometry width="50" height="50" relative="1" as="geometry">
            <mxPoint x="20" y="147.25" as="sourcePoint" />
            <mxPoint x="90" y="147" as="targetPoint" />
          </mxGeometry>
        </mxCell>
        <mxCell id="zSebhdD4SlKoql86wcFb-56" value="" style="endArrow=none;html=1;rounded=0;exitX=0.996;exitY=0.353;exitDx=0;exitDy=0;exitPerimeter=0;" edge="1" parent="zSebhdD4SlKoql86wcFb-71" source="zSebhdD4SlKoql86wcFb-13">
          <mxGeometry width="50" height="50" relative="1" as="geometry">
            <mxPoint x="390" y="269.75" as="sourcePoint" />
            <mxPoint x="420" y="269.5" as="targetPoint" />
          </mxGeometry>
        </mxCell>
        <mxCell id="zSebhdD4SlKoql86wcFb-57" value="" style="endArrow=none;html=1;rounded=0;" edge="1" parent="zSebhdD4SlKoql86wcFb-71">
          <mxGeometry width="50" height="50" relative="1" as="geometry">
            <mxPoint x="395" y="213.5" as="sourcePoint" />
            <mxPoint x="420" y="213" as="targetPoint" />
          </mxGeometry>
        </mxCell>
        <mxCell id="zSebhdD4SlKoql86wcFb-58" value="" style="endArrow=none;html=1;rounded=0;exitX=1;exitY=0.5;exitDx=0;exitDy=0;" edge="1" parent="zSebhdD4SlKoql86wcFb-71" source="zSebhdD4SlKoql86wcFb-2">
          <mxGeometry width="50" height="50" relative="1" as="geometry">
            <mxPoint x="395" y="145" as="sourcePoint" />
            <mxPoint x="420" y="144.5" as="targetPoint" />
          </mxGeometry>
        </mxCell>
        <mxCell id="zSebhdD4SlKoql86wcFb-59" value="" style="endArrow=none;html=1;rounded=0;exitX=1;exitY=0.5;exitDx=0;exitDy=0;" edge="1" parent="zSebhdD4SlKoql86wcFb-71">
          <mxGeometry width="50" height="50" relative="1" as="geometry">
            <mxPoint x="385" y="310.5" as="sourcePoint" />
            <mxPoint x="420" y="310" as="targetPoint" />
          </mxGeometry>
        </mxCell>
        <mxCell id="zSebhdD4SlKoql86wcFb-60" value="" style="endArrow=none;html=1;rounded=0;exitX=1;exitY=0.5;exitDx=0;exitDy=0;" edge="1" parent="zSebhdD4SlKoql86wcFb-71">
          <mxGeometry width="50" height="50" relative="1" as="geometry">
            <mxPoint x="385" y="350" as="sourcePoint" />
            <mxPoint x="420" y="349.5" as="targetPoint" />
          </mxGeometry>
        </mxCell>
        <mxCell id="zSebhdD4SlKoql86wcFb-61" value="" style="endArrow=none;html=1;rounded=0;exitX=1;exitY=0.5;exitDx=0;exitDy=0;" edge="1" parent="zSebhdD4SlKoql86wcFb-71">
          <mxGeometry width="50" height="50" relative="1" as="geometry">
            <mxPoint x="385" y="390" as="sourcePoint" />
            <mxPoint x="420" y="389.5" as="targetPoint" />
          </mxGeometry>
        </mxCell>
        <mxCell id="zSebhdD4SlKoql86wcFb-62" value="" style="endArrow=none;html=1;rounded=0;exitX=1;exitY=0.5;exitDx=0;exitDy=0;" edge="1" parent="zSebhdD4SlKoql86wcFb-71">
          <mxGeometry width="50" height="50" relative="1" as="geometry">
            <mxPoint x="385" y="430" as="sourcePoint" />
            <mxPoint x="420" y="429.5" as="targetPoint" />
          </mxGeometry>
        </mxCell>
        <mxCell id="zSebhdD4SlKoql86wcFb-63" value="" style="endArrow=none;html=1;rounded=0;exitX=1;exitY=0.5;exitDx=0;exitDy=0;" edge="1" parent="zSebhdD4SlKoql86wcFb-71">
          <mxGeometry width="50" height="50" relative="1" as="geometry">
            <mxPoint x="385" y="470" as="sourcePoint" />
            <mxPoint x="420" y="469.5" as="targetPoint" />
          </mxGeometry>
        </mxCell>
        <mxCell id="zSebhdD4SlKoql86wcFb-64" value="Refrigarator" style="rounded=0;whiteSpace=wrap;html=1;" vertex="1" parent="zSebhdD4SlKoql86wcFb-71">
          <mxGeometry y="80" width="90" height="27.5" as="geometry" />
        </mxCell>
        <mxCell id="zSebhdD4SlKoql86wcFb-65" value="Chiller" style="rounded=0;whiteSpace=wrap;html=1;" vertex="1" parent="zSebhdD4SlKoql86wcFb-71">
          <mxGeometry width="90" height="27.5" as="geometry" />
        </mxCell>
        <mxCell id="zSebhdD4SlKoql86wcFb-66" value="" style="endArrow=classic;html=1;rounded=0;" edge="1" parent="zSebhdD4SlKoql86wcFb-71">
          <mxGeometry width="50" height="50" relative="1" as="geometry">
            <mxPoint x="40" y="77.5" as="sourcePoint" />
            <mxPoint x="40" y="27.5" as="targetPoint" />
          </mxGeometry>
        </mxCell>
        <mxCell id="zSebhdD4SlKoql86wcFb-67" value="" style="endArrow=none;html=1;rounded=0;entryX=0;entryY=0.5;entryDx=0;entryDy=0;" edge="1" parent="zSebhdD4SlKoql86wcFb-71" target="pyTkr3iDTCvJTYTdv11U-1">
          <mxGeometry width="50" height="50" relative="1" as="geometry">
            <mxPoint x="90" y="13.25" as="sourcePoint" />
            <mxPoint x="330" y="13.25" as="targetPoint" />
          </mxGeometry>
        </mxCell>
        <mxCell id="zSebhdD4SlKoql86wcFb-69" value="" style="endArrow=classic;html=1;rounded=0;" edge="1" parent="zSebhdD4SlKoql86wcFb-71">
          <mxGeometry width="50" height="50" relative="1" as="geometry">
            <mxPoint x="20" y="167.5" as="sourcePoint" />
            <mxPoint x="20" y="127.5" as="targetPoint" />
          </mxGeometry>
        </mxCell>
        <mxCell id="zSebhdD4SlKoql86wcFb-72" value="" style="endArrow=classic;html=1;rounded=0;" edge="1" parent="zSebhdD4SlKoql86wcFb-71">
          <mxGeometry width="50" height="50" relative="1" as="geometry">
            <mxPoint x="420" y="132.5" as="sourcePoint" />
            <mxPoint x="420" y="72.5" as="targetPoint" />
          </mxGeometry>
        </mxCell>
        <mxCell id="zSebhdD4SlKoql86wcFb-73" value="" style="group" vertex="1" connectable="0" parent="1">
          <mxGeometry x="240" y="68" width="435" height="370.75" as="geometry" />
        </mxCell>
        <mxCell id="zSebhdD4SlKoql86wcFb-74" value="" style="group" vertex="1" connectable="0" parent="zSebhdD4SlKoql86wcFb-73">
          <mxGeometry x="200" y="2" width="235" height="368.75" as="geometry" />
        </mxCell>
        <mxCell id="zSebhdD4SlKoql86wcFb-75" value="" style="rounded=1;whiteSpace=wrap;html=1;rotation=90;arcSize=50;fillColor=#f8cecc;strokeColor=#b85450;" vertex="1" parent="zSebhdD4SlKoql86wcFb-74">
          <mxGeometry y="298.75" width="52.5" height="20" as="geometry" />
        </mxCell>
        <mxCell id="zSebhdD4SlKoql86wcFb-76" value="" style="rounded=1;whiteSpace=wrap;html=1;rotation=90;arcSize=50;fillColor=#f8cecc;strokeColor=#b85450;" vertex="1" parent="zSebhdD4SlKoql86wcFb-74">
          <mxGeometry x="170" y="298.75" width="52.5" height="20" as="geometry" />
        </mxCell>
        <mxCell id="zSebhdD4SlKoql86wcFb-77" value="" style="rounded=1;whiteSpace=wrap;html=1;rotation=90;arcSize=50;fillColor=#FF3333;" vertex="1" parent="zSebhdD4SlKoql86wcFb-74">
          <mxGeometry x="170" y="304.38" width="30" height="8.75" as="geometry" />
        </mxCell>
        <mxCell id="zSebhdD4SlKoql86wcFb-78" value="" style="rounded=1;whiteSpace=wrap;html=1;rotation=90;arcSize=50;fillColor=#FF3333;" vertex="1" parent="zSebhdD4SlKoql86wcFb-74">
          <mxGeometry x="22.5" y="304.38" width="30" height="8.75" as="geometry" />
        </mxCell>
        <mxCell id="zSebhdD4SlKoql86wcFb-79" value="" style="shape=hexagon;perimeter=hexagonPerimeter2;whiteSpace=wrap;html=1;fixedSize=1;size=20;fillColor=#00CC00;strokeWidth=2;" vertex="1" parent="zSebhdD4SlKoql86wcFb-74">
          <mxGeometry x="70" y="298.75" width="80" height="20" as="geometry" />
        </mxCell>
        <mxCell id="zSebhdD4SlKoql86wcFb-80" value="" style="endArrow=none;html=1;rounded=0;strokeColor=#00CC00;strokeWidth=6;" edge="1" parent="zSebhdD4SlKoql86wcFb-74">
          <mxGeometry width="50" height="50" relative="1" as="geometry">
            <mxPoint x="40" y="308.25" as="sourcePoint" />
            <mxPoint x="70" y="308.25" as="targetPoint" />
          </mxGeometry>
        </mxCell>
        <mxCell id="zSebhdD4SlKoql86wcFb-81" value="" style="endArrow=none;html=1;rounded=0;strokeColor=#00CC00;strokeWidth=6;" edge="1" parent="zSebhdD4SlKoql86wcFb-74">
          <mxGeometry width="50" height="50" relative="1" as="geometry">
            <mxPoint x="150" y="308.25" as="sourcePoint" />
            <mxPoint x="180" y="308.25" as="targetPoint" />
          </mxGeometry>
        </mxCell>
        <mxCell id="zSebhdD4SlKoql86wcFb-82" value="" style="shape=trapezoid;perimeter=trapezoidPerimeter;whiteSpace=wrap;html=1;fixedSize=1;rotation=-180;fillColor=#00CC00;" vertex="1" parent="zSebhdD4SlKoql86wcFb-74">
          <mxGeometry x="75" y="228.75" width="70" height="30" as="geometry" />
        </mxCell>
        <mxCell id="zSebhdD4SlKoql86wcFb-83" value="" style="endArrow=none;html=1;rounded=0;strokeColor=#00CC00;strokeWidth=6;entryX=0.5;entryY=0;entryDx=0;entryDy=0;" edge="1" parent="zSebhdD4SlKoql86wcFb-74" target="zSebhdD4SlKoql86wcFb-79">
          <mxGeometry width="50" height="50" relative="1" as="geometry">
            <mxPoint x="109.5" y="258.75" as="sourcePoint" />
            <mxPoint x="109.5" y="288.75" as="targetPoint" />
          </mxGeometry>
        </mxCell>
        <mxCell id="zSebhdD4SlKoql86wcFb-84" value="&lt;font style=&quot;color: rgb(204, 255, 255);&quot;&gt;&lt;b&gt;&lt;span style=&quot;font-size: 8px; background-color: transparent;&quot;&gt;Final&amp;nbsp;&lt;/span&gt;&lt;span style=&quot;font-size: 8px; background-color: transparent;&quot;&gt;Drive&lt;/span&gt;&lt;/b&gt;&lt;/font&gt;" style="text;html=1;align=center;verticalAlign=top;resizable=0;points=[];autosize=1;strokeColor=none;fillColor=none;perimeterSpacing=0;strokeWidth=1;spacingTop=-6;spacing=2;spacingLeft=-1;horizontal=1;" vertex="1" parent="zSebhdD4SlKoql86wcFb-74">
          <mxGeometry x="80" y="298.75" width="60" height="20" as="geometry" />
        </mxCell>
        <mxCell id="zSebhdD4SlKoql86wcFb-85" value="&lt;font style=&quot;font-size: 9px;&quot;&gt;&lt;b&gt;Transmission&lt;/b&gt;&lt;/font&gt;" style="text;html=1;align=center;verticalAlign=middle;resizable=0;points=[];autosize=1;strokeColor=none;fillColor=none;" vertex="1" parent="zSebhdD4SlKoql86wcFb-74">
          <mxGeometry x="70" y="218.75" width="80" height="30" as="geometry" />
        </mxCell>
        <mxCell id="zSebhdD4SlKoql86wcFb-86" value="" style="shape=cylinder3;whiteSpace=wrap;html=1;boundedLbl=1;backgroundOutline=1;size=7.800018310546875;fillColor=#FF33FF;" vertex="1" parent="zSebhdD4SlKoql86wcFb-74">
          <mxGeometry x="80" y="148.75" width="60" height="50" as="geometry" />
        </mxCell>
        <mxCell id="zSebhdD4SlKoql86wcFb-87" value="&lt;font style=&quot;font-size: 10px; color: rgb(255, 255, 255);&quot;&gt;&lt;b style=&quot;&quot;&gt;E-motor&lt;br&gt;Generator1&lt;/b&gt;&lt;/font&gt;" style="text;html=1;align=center;verticalAlign=middle;resizable=0;points=[];autosize=1;strokeColor=none;fillColor=none;" vertex="1" parent="zSebhdD4SlKoql86wcFb-74">
          <mxGeometry x="70" y="158.75" width="80" height="40" as="geometry" />
        </mxCell>
        <mxCell id="zSebhdD4SlKoql86wcFb-88" value="" style="endArrow=none;html=1;rounded=0;strokeColor=#00CC00;strokeWidth=6;entryX=0.5;entryY=0;entryDx=0;entryDy=0;" edge="1" parent="zSebhdD4SlKoql86wcFb-74">
          <mxGeometry width="50" height="50" relative="1" as="geometry">
            <mxPoint x="110" y="198.75" as="sourcePoint" />
            <mxPoint x="110" y="228.75" as="targetPoint" />
          </mxGeometry>
        </mxCell>
        <mxCell id="zSebhdD4SlKoql86wcFb-89" value="" style="endArrow=none;html=1;rounded=0;strokeColor=#33001A;strokeWidth=6;entryX=0.5;entryY=0;entryDx=0;entryDy=0;" edge="1" parent="zSebhdD4SlKoql86wcFb-74">
          <mxGeometry width="50" height="50" relative="1" as="geometry">
            <mxPoint x="124.75" y="208.75" as="sourcePoint" />
            <mxPoint x="95.25" y="208.75" as="targetPoint" />
          </mxGeometry>
        </mxCell>
        <mxCell id="zSebhdD4SlKoql86wcFb-90" value="" style="endArrow=none;html=1;rounded=0;strokeColor=#33001A;strokeWidth=6;entryX=0.5;entryY=0;entryDx=0;entryDy=0;" edge="1" parent="zSebhdD4SlKoql86wcFb-74">
          <mxGeometry width="50" height="50" relative="1" as="geometry">
            <mxPoint x="124.75" y="218.75" as="sourcePoint" />
            <mxPoint x="95.25" y="218.75" as="targetPoint" />
          </mxGeometry>
        </mxCell>
        <mxCell id="zSebhdD4SlKoql86wcFb-91" value="" style="endArrow=classic;startArrow=classic;html=1;rounded=0;strokeColor=#00FF00;" edge="1" parent="zSebhdD4SlKoql86wcFb-74">
          <mxGeometry width="50" height="50" relative="1" as="geometry">
            <mxPoint x="80.5" y="228.75" as="sourcePoint" />
            <mxPoint x="80" y="198.75" as="targetPoint" />
          </mxGeometry>
        </mxCell>
        <mxCell id="zSebhdD4SlKoql86wcFb-92" value="&lt;font style=&quot;font-size: 9px;&quot;&gt;&lt;b&gt;Coupling&lt;/b&gt;&lt;/font&gt;" style="text;html=1;align=center;verticalAlign=middle;resizable=0;points=[];autosize=1;strokeColor=none;fillColor=none;" vertex="1" parent="zSebhdD4SlKoql86wcFb-74">
          <mxGeometry x="125" y="198.75" width="60" height="30" as="geometry" />
        </mxCell>
        <mxCell id="zSebhdD4SlKoql86wcFb-93" value="" style="endArrow=classic;startArrow=classic;html=1;rounded=0;strokeColor=#00FF00;" edge="1" parent="zSebhdD4SlKoql86wcFb-74">
          <mxGeometry width="50" height="50" relative="1" as="geometry">
            <mxPoint x="70.5" y="258.75" as="sourcePoint" />
            <mxPoint x="70" y="228.75" as="targetPoint" />
          </mxGeometry>
        </mxCell>
        <mxCell id="zSebhdD4SlKoql86wcFb-94" value="" style="endArrow=classic;startArrow=classic;html=1;rounded=0;strokeColor=#00FF00;" edge="1" parent="zSebhdD4SlKoql86wcFb-74">
          <mxGeometry width="50" height="50" relative="1" as="geometry">
            <mxPoint x="100.5" y="298.75" as="sourcePoint" />
            <mxPoint x="100" y="268.75" as="targetPoint" />
          </mxGeometry>
        </mxCell>
        <mxCell id="zSebhdD4SlKoql86wcFb-95" value="" style="endArrow=classic;startArrow=classic;html=1;rounded=0;strokeColor=#00FF00;" edge="1" parent="zSebhdD4SlKoql86wcFb-74">
          <mxGeometry width="50" height="50" relative="1" as="geometry">
            <mxPoint x="40" y="297.75" as="sourcePoint" />
            <mxPoint x="86.25" y="297.75" as="targetPoint" />
          </mxGeometry>
        </mxCell>
        <mxCell id="zSebhdD4SlKoql86wcFb-96" value="" style="endArrow=classic;startArrow=classic;html=1;rounded=0;strokeColor=#00FF00;" edge="1" parent="zSebhdD4SlKoql86wcFb-74">
          <mxGeometry width="50" height="50" relative="1" as="geometry">
            <mxPoint x="133" y="297.75" as="sourcePoint" />
            <mxPoint x="176.75" y="297.75" as="targetPoint" />
          </mxGeometry>
        </mxCell>
        <mxCell id="zSebhdD4SlKoql86wcFb-97" value="" style="group" vertex="1" connectable="0" parent="zSebhdD4SlKoql86wcFb-74">
          <mxGeometry x="80" width="85" height="123.75" as="geometry" />
        </mxCell>
        <mxCell id="zSebhdD4SlKoql86wcFb-98" value="" style="rounded=0;whiteSpace=wrap;html=1;rotation=90;fillColor=#00CC00;" vertex="1" parent="zSebhdD4SlKoql86wcFb-97">
          <mxGeometry x="-34.52999999999997" y="34.53" width="123.75" height="54.69" as="geometry" />
        </mxCell>
        <mxCell id="zSebhdD4SlKoql86wcFb-99" value="" style="ellipse;whiteSpace=wrap;html=1;aspect=fixed;" vertex="1" parent="zSebhdD4SlKoql86wcFb-97">
          <mxGeometry x="10" y="8.75" width="20" height="20" as="geometry" />
        </mxCell>
        <mxCell id="zSebhdD4SlKoql86wcFb-100" value="" style="ellipse;whiteSpace=wrap;html=1;aspect=fixed;" vertex="1" parent="zSebhdD4SlKoql86wcFb-97">
          <mxGeometry x="10" y="40" width="20" height="20" as="geometry" />
        </mxCell>
        <mxCell id="zSebhdD4SlKoql86wcFb-101" value="" style="ellipse;whiteSpace=wrap;html=1;aspect=fixed;" vertex="1" parent="zSebhdD4SlKoql86wcFb-97">
          <mxGeometry x="10" y="68.75" width="20" height="20" as="geometry" />
        </mxCell>
        <mxCell id="zSebhdD4SlKoql86wcFb-102" value="" style="ellipse;whiteSpace=wrap;html=1;aspect=fixed;" vertex="1" parent="zSebhdD4SlKoql86wcFb-97">
          <mxGeometry x="10" y="98.75" width="20" height="20" as="geometry" />
        </mxCell>
        <mxCell id="zSebhdD4SlKoql86wcFb-103" value="&lt;font style=&quot;color: rgb(204, 255, 255);&quot; face=&quot;Times New Roman&quot;&gt;&lt;b&gt;IC Engine&lt;/b&gt;&lt;/font&gt;" style="text;html=1;align=center;verticalAlign=middle;resizable=0;points=[];autosize=1;strokeColor=none;fillColor=none;rotation=90;" vertex="1" parent="zSebhdD4SlKoql86wcFb-97">
          <mxGeometry x="5" y="46.879999999999995" width="80" height="30" as="geometry" />
        </mxCell>
        <mxCell id="zSebhdD4SlKoql86wcFb-104" value="" style="endArrow=classic;html=1;rounded=0;strokeWidth=2;strokeColor=#00CC00;" edge="1" parent="zSebhdD4SlKoql86wcFb-97">
          <mxGeometry width="50" height="50" relative="1" as="geometry">
            <mxPoint x="70" y="-1.25" as="sourcePoint" />
            <mxPoint x="70" y="110" as="targetPoint" />
          </mxGeometry>
        </mxCell>
        <mxCell id="zSebhdD4SlKoql86wcFb-105" value="" style="endArrow=none;html=1;rounded=0;strokeColor=#00CC00;strokeWidth=7;" edge="1" parent="zSebhdD4SlKoql86wcFb-74">
          <mxGeometry width="50" height="50" relative="1" as="geometry">
            <mxPoint x="112.5" y="138.75" as="sourcePoint" />
            <mxPoint x="180" y="138.75" as="targetPoint" />
          </mxGeometry>
        </mxCell>
        <mxCell id="zSebhdD4SlKoql86wcFb-106" value="" style="endArrow=none;html=1;rounded=0;strokeWidth=8;strokeColor=#00CC00;" edge="1" parent="zSebhdD4SlKoql86wcFb-74">
          <mxGeometry width="50" height="50" relative="1" as="geometry">
            <mxPoint x="109.5" y="153.75" as="sourcePoint" />
            <mxPoint x="109.5" y="123.75" as="targetPoint" />
          </mxGeometry>
        </mxCell>
        <mxCell id="zSebhdD4SlKoql86wcFb-107" value="" style="endArrow=classic;html=1;rounded=0;strokeColor=#00CC00;" edge="1" parent="zSebhdD4SlKoql86wcFb-74">
          <mxGeometry width="50" height="50" relative="1" as="geometry">
            <mxPoint x="90" y="123.75" as="sourcePoint" />
            <mxPoint x="90" y="143.75" as="targetPoint" />
          </mxGeometry>
        </mxCell>
        <mxCell id="zSebhdD4SlKoql86wcFb-108" value="" style="endArrow=classic;html=1;rounded=0;strokeColor=#00CC00;" edge="1" parent="zSebhdD4SlKoql86wcFb-74">
          <mxGeometry width="50" height="50" relative="1" as="geometry">
            <mxPoint x="130" y="123.75" as="sourcePoint" />
            <mxPoint x="180" y="123.75" as="targetPoint" />
          </mxGeometry>
        </mxCell>
        <mxCell id="zSebhdD4SlKoql86wcFb-109" value="" style="endArrow=classic;html=1;rounded=0;strokeColor=#00CC00;" edge="1" parent="zSebhdD4SlKoql86wcFb-74">
          <mxGeometry width="50" height="50" relative="1" as="geometry">
            <mxPoint x="130" y="68.75" as="sourcePoint" />
            <mxPoint x="170" y="68.75" as="targetPoint" />
          </mxGeometry>
        </mxCell>
        <mxCell id="zSebhdD4SlKoql86wcFb-110" value="" style="ellipse;whiteSpace=wrap;html=1;strokeColor=#00CC00;fillColor=#00CC00;" vertex="1" parent="zSebhdD4SlKoql86wcFb-74">
          <mxGeometry x="180" y="108.75" width="40" height="50" as="geometry" />
        </mxCell>
        <mxCell id="zSebhdD4SlKoql86wcFb-111" value="" style="endArrow=none;html=1;rounded=0;strokeColor=#CCFFFF;strokeWidth=2;" edge="1" parent="zSebhdD4SlKoql86wcFb-74" source="zSebhdD4SlKoql86wcFb-114">
          <mxGeometry width="50" height="50" relative="1" as="geometry">
            <mxPoint x="200" y="153.75" as="sourcePoint" />
            <mxPoint x="200" y="113.75" as="targetPoint" />
          </mxGeometry>
        </mxCell>
        <mxCell id="zSebhdD4SlKoql86wcFb-112" value="" style="endArrow=none;html=1;rounded=0;strokeColor=#CCFFFF;strokeWidth=2;" edge="1" parent="zSebhdD4SlKoql86wcFb-74">
          <mxGeometry width="50" height="50" relative="1" as="geometry">
            <mxPoint x="182.5" y="133.25" as="sourcePoint" />
            <mxPoint x="222.5" y="133.25" as="targetPoint" />
          </mxGeometry>
        </mxCell>
        <mxCell id="zSebhdD4SlKoql86wcFb-113" value="" style="endArrow=none;html=1;rounded=0;strokeColor=#CCFFFF;strokeWidth=2;" edge="1" parent="zSebhdD4SlKoql86wcFb-74" target="zSebhdD4SlKoql86wcFb-114">
          <mxGeometry width="50" height="50" relative="1" as="geometry">
            <mxPoint x="200" y="153.75" as="sourcePoint" />
            <mxPoint x="200" y="113.75" as="targetPoint" />
          </mxGeometry>
        </mxCell>
        <mxCell id="zSebhdD4SlKoql86wcFb-114" value="&lt;font style=&quot;font-size: 10px;&quot;&gt;&lt;b&gt;Mechanical&lt;/b&gt;&lt;/font&gt;&lt;div&gt;&lt;font style=&quot;font-size: 10px;&quot;&gt;&lt;b&gt;Accessories&lt;/b&gt;&lt;/font&gt;&lt;/div&gt;" style="text;html=1;align=center;verticalAlign=middle;resizable=0;points=[];autosize=1;strokeColor=none;fillColor=none;rotation=-88;" vertex="1" parent="zSebhdD4SlKoql86wcFb-74">
          <mxGeometry x="160" y="113.75" width="80" height="40" as="geometry" />
        </mxCell>
        <mxCell id="zSebhdD4SlKoql86wcFb-115" value="" style="endArrow=none;html=1;rounded=0;strokeColor=#CCFFFF;strokeWidth=2;" edge="1" parent="zSebhdD4SlKoql86wcFb-74">
          <mxGeometry width="50" height="50" relative="1" as="geometry">
            <mxPoint x="200" y="153.75" as="sourcePoint" />
            <mxPoint x="200" y="113.75" as="targetPoint" />
          </mxGeometry>
        </mxCell>
        <mxCell id="zSebhdD4SlKoql86wcFb-116" value="&lt;b&gt;&lt;font style=&quot;font-size: 10px;&quot;&gt;Brake System&lt;/font&gt;&lt;/b&gt;" style="text;html=1;align=center;verticalAlign=middle;resizable=0;points=[];autosize=1;strokeColor=none;fillColor=none;" vertex="1" parent="zSebhdD4SlKoql86wcFb-74">
          <mxGeometry x="60" y="338.75" width="90" height="30" as="geometry" />
        </mxCell>
        <mxCell id="zSebhdD4SlKoql86wcFb-117" value="" style="endArrow=classic;html=1;rounded=0;strokeColor=#336600;" edge="1" parent="zSebhdD4SlKoql86wcFb-74">
          <mxGeometry width="50" height="50" relative="1" as="geometry">
            <mxPoint x="30" y="297.75" as="sourcePoint" />
            <mxPoint y="297.75" as="targetPoint" />
          </mxGeometry>
        </mxCell>
        <mxCell id="zSebhdD4SlKoql86wcFb-118" value="" style="endArrow=classic;html=1;rounded=0;strokeColor=#336600;" edge="1" parent="zSebhdD4SlKoql86wcFb-74">
          <mxGeometry width="50" height="50" relative="1" as="geometry">
            <mxPoint x="190" y="297.75" as="sourcePoint" />
            <mxPoint x="220" y="297.75" as="targetPoint" />
          </mxGeometry>
        </mxCell>
        <mxCell id="zSebhdD4SlKoql86wcFb-119" value="" style="endArrow=none;html=1;rounded=0;" edge="1" parent="zSebhdD4SlKoql86wcFb-74">
          <mxGeometry width="50" height="50" relative="1" as="geometry">
            <mxPoint x="70" y="348.75" as="sourcePoint" />
            <mxPoint x="35" y="318.75" as="targetPoint" />
          </mxGeometry>
        </mxCell>
        <mxCell id="zSebhdD4SlKoql86wcFb-120" value="" style="endArrow=none;html=1;rounded=0;" edge="1" parent="zSebhdD4SlKoql86wcFb-74">
          <mxGeometry width="50" height="50" relative="1" as="geometry">
            <mxPoint x="135" y="353.13" as="sourcePoint" />
            <mxPoint x="180" y="318.75" as="targetPoint" />
          </mxGeometry>
        </mxCell>
        <mxCell id="zSebhdD4SlKoql86wcFb-121" value="" style="endArrow=classic;html=1;rounded=0;exitX=0;exitY=0;exitDx=0;exitDy=7.800018310546875;exitPerimeter=0;strokeColor=#66CC00;strokeWidth=2;" edge="1" parent="zSebhdD4SlKoql86wcFb-74" source="zSebhdD4SlKoql86wcFb-86">
          <mxGeometry width="50" height="50" relative="1" as="geometry">
            <mxPoint x="100" y="183.75" as="sourcePoint" />
            <mxPoint x="10" y="113.75" as="targetPoint" />
          </mxGeometry>
        </mxCell>
        <mxCell id="zSebhdD4SlKoql86wcFb-122" value="" style="endArrow=classic;html=1;rounded=0;strokeColor=#66CC00;strokeWidth=2;" edge="1" parent="zSebhdD4SlKoql86wcFb-74">
          <mxGeometry width="50" height="50" relative="1" as="geometry">
            <mxPoint x="80" y="70" as="sourcePoint" />
            <mxPoint x="10" y="80" as="targetPoint" />
          </mxGeometry>
        </mxCell>
        <mxCell id="zSebhdD4SlKoql86wcFb-123" value="" style="endArrow=classic;startArrow=classic;html=1;rounded=0;strokeColor=#FF66FF;strokeWidth=2;" edge="1" parent="zSebhdD4SlKoql86wcFb-74">
          <mxGeometry width="50" height="50" relative="1" as="geometry">
            <mxPoint x="2.5" y="210" as="sourcePoint" />
            <mxPoint x="72.5" y="170" as="targetPoint" />
            <Array as="points">
              <mxPoint x="22.5" y="190" />
              <mxPoint x="42.5" y="180" />
            </Array>
          </mxGeometry>
        </mxCell>
        <mxCell id="zSebhdD4SlKoql86wcFb-124" value="&lt;b&gt;Wheels&lt;/b&gt;" style="text;html=1;align=center;verticalAlign=middle;resizable=0;points=[];autosize=1;strokeColor=none;fillColor=none;" vertex="1" parent="zSebhdD4SlKoql86wcFb-74">
          <mxGeometry x="165" y="330" width="70" height="30" as="geometry" />
        </mxCell>
        <mxCell id="zSebhdD4SlKoql86wcFb-125" value="" style="shape=card;whiteSpace=wrap;html=1;size=20;fillColor=#009900;" vertex="1" parent="zSebhdD4SlKoql86wcFb-73">
          <mxGeometry x="130" y="72" width="80" height="50" as="geometry" />
        </mxCell>
        <mxCell id="zSebhdD4SlKoql86wcFb-126" value="&lt;font style=&quot;font-size: 11px; color: rgb(255, 255, 255);&quot; face=&quot;Times New Roman&quot;&gt;&lt;b&gt;Cooling System&lt;/b&gt;&lt;/font&gt;" style="text;html=1;align=center;verticalAlign=middle;resizable=0;points=[];autosize=1;strokeColor=none;fillColor=none;" vertex="1" parent="zSebhdD4SlKoql86wcFb-73">
          <mxGeometry x="120" y="82" width="100" height="30" as="geometry" />
        </mxCell>
        <mxCell id="zSebhdD4SlKoql86wcFb-127" value="" style="verticalAlign=top;align=left;spacingTop=8;spacingLeft=2;spacingRight=12;shape=cube;size=10;direction=south;fontStyle=4;html=1;whiteSpace=wrap;fillColor=#FF33FF;" vertex="1" parent="zSebhdD4SlKoql86wcFb-73">
          <mxGeometry x="10" y="152" width="90" height="50" as="geometry" />
        </mxCell>
        <mxCell id="zSebhdD4SlKoql86wcFb-128" value="&lt;font style=&quot;color: rgb(255, 255, 255);&quot; face=&quot;Times New Roman&quot;&gt;&lt;b&gt;Battery&lt;/b&gt;&lt;/font&gt;" style="text;html=1;align=center;verticalAlign=middle;resizable=0;points=[];autosize=1;" vertex="1" parent="zSebhdD4SlKoql86wcFb-73">
          <mxGeometry x="10" y="162" width="60" height="30" as="geometry" />
        </mxCell>
        <mxCell id="zSebhdD4SlKoql86wcFb-129" value="" style="verticalLabelPosition=bottom;verticalAlign=top;html=1;shape=mxgraph.basic.polygon;polyCoords=[[0.13,0],[0.88,0],[1,0.25],[1,0.75],[0.88,1],[0.13,1],[0,0.75],[0,0.25]];polyline=0;fillColor=#B266FF;" vertex="1" parent="zSebhdD4SlKoql86wcFb-73">
          <mxGeometry x="110" y="202" width="90" height="40" as="geometry" />
        </mxCell>
        <mxCell id="zSebhdD4SlKoql86wcFb-130" value="" style="endArrow=classic;html=1;rounded=0;strokeColor=#4D9900;strokeWidth=2;" edge="1" parent="zSebhdD4SlKoql86wcFb-73">
          <mxGeometry width="50" height="50" relative="1" as="geometry">
            <mxPoint x="160" y="202" as="sourcePoint" />
            <mxPoint x="160" y="122" as="targetPoint" />
          </mxGeometry>
        </mxCell>
        <mxCell id="zSebhdD4SlKoql86wcFb-131" value="&lt;font style=&quot;color: rgb(255, 255, 255);&quot; face=&quot;Times New Roman&quot;&gt;&lt;b&gt;Power&amp;nbsp;&lt;/b&gt;&lt;/font&gt;&lt;div&gt;&lt;font style=&quot;color: rgb(255, 255, 255);&quot; face=&quot;Times New Roman&quot;&gt;&lt;b&gt;Accessories&lt;/b&gt;&lt;/font&gt;&lt;/div&gt;" style="text;html=1;align=center;verticalAlign=middle;resizable=0;points=[];autosize=1;strokeColor=none;fillColor=none;" vertex="1" parent="zSebhdD4SlKoql86wcFb-73">
          <mxGeometry x="115" y="202" width="80" height="40" as="geometry" />
        </mxCell>
        <mxCell id="zSebhdD4SlKoql86wcFb-132" value="" style="endArrow=classic;startArrow=classic;html=1;rounded=0;exitX=0.018;exitY=0.765;exitDx=0;exitDy=0;exitPerimeter=0;strokeColor=#FF33FF;strokeWidth=2;" edge="1" parent="zSebhdD4SlKoql86wcFb-73" source="zSebhdD4SlKoql86wcFb-129">
          <mxGeometry width="50" height="50" relative="1" as="geometry">
            <mxPoint x="-10" y="252" as="sourcePoint" />
            <mxPoint x="40" y="202" as="targetPoint" />
            <Array as="points">
              <mxPoint x="90" y="232" />
              <mxPoint x="70" y="222" />
            </Array>
          </mxGeometry>
        </mxCell>
        <mxCell id="zSebhdD4SlKoql86wcFb-133" value="" style="endArrow=classic;html=1;rounded=0;strokeColor=#00CC00;strokeWidth=2;" edge="1" parent="zSebhdD4SlKoql86wcFb-73">
          <mxGeometry width="50" height="50" relative="1" as="geometry">
            <mxPoint x="100" y="152" as="sourcePoint" />
            <mxPoint x="130" y="122" as="targetPoint" />
          </mxGeometry>
        </mxCell>
        <mxCell id="zSebhdD4SlKoql86wcFb-134" value="&lt;font style=&quot;color: rgb(255, 255, 255);&quot;&gt;Fuel Tank&lt;/font&gt;" style="labelPosition=center;verticalLabelPosition=middle;align=center;html=1;shape=mxgraph.basic.button;dx=10;whiteSpace=wrap;fillColor=#CCCC00;" vertex="1" parent="zSebhdD4SlKoql86wcFb-73">
          <mxGeometry x="50" width="100" height="60" as="geometry" />
        </mxCell>
        <mxCell id="zSebhdD4SlKoql86wcFb-135" value="" style="endArrow=classic;html=1;rounded=0;strokeColor=#66CC00;" edge="1" parent="zSebhdD4SlKoql86wcFb-73">
          <mxGeometry width="50" height="50" relative="1" as="geometry">
            <mxPoint x="130" y="92" as="sourcePoint" />
            <mxPoint x="90" y="92" as="targetPoint" />
          </mxGeometry>
        </mxCell>
        <mxCell id="zSebhdD4SlKoql86wcFb-136" value="" style="endArrow=classic;html=1;rounded=0;exitX=0.568;exitY=1.105;exitDx=0;exitDy=0;exitPerimeter=0;strokeColor=#FF00FF;" edge="1" parent="zSebhdD4SlKoql86wcFb-73">
          <mxGeometry width="50" height="50" relative="1" as="geometry">
            <mxPoint x="160.44000000000005" y="242.00000000000006" as="sourcePoint" />
            <mxPoint x="80" y="277.8" as="targetPoint" />
            <Array as="points">
              <mxPoint x="150" y="262" />
              <mxPoint x="120" y="272" />
            </Array>
          </mxGeometry>
        </mxCell>
        <mxCell id="zSebhdD4SlKoql86wcFb-137" value="" style="verticalLabelPosition=bottom;verticalAlign=top;html=1;shape=mxgraph.basic.8_point_star;fillColor=#FF33FF;" vertex="1" parent="zSebhdD4SlKoql86wcFb-73">
          <mxGeometry y="252" width="80" height="60" as="geometry" />
        </mxCell>
        <mxCell id="zSebhdD4SlKoql86wcFb-138" value="&lt;font style=&quot;font-size: 10px; color: rgb(255, 255, 255);&quot; face=&quot;Times New Roman&quot;&gt;&lt;b style=&quot;&quot;&gt;Electrical&lt;/b&gt;&lt;/font&gt;&lt;div&gt;&lt;font style=&quot;font-size: 10px; color: rgb(255, 255, 255);&quot; face=&quot;Times New Roman&quot;&gt;&lt;b style=&quot;&quot;&gt;Accessories&lt;/b&gt;&lt;/font&gt;&lt;/div&gt;" style="text;html=1;align=center;verticalAlign=middle;resizable=0;points=[];autosize=1;strokeColor=none;fillColor=none;" vertex="1" parent="zSebhdD4SlKoql86wcFb-73">
          <mxGeometry y="262" width="70" height="40" as="geometry" />
        </mxCell>
        <mxCell id="zSebhdD4SlKoql86wcFb-139" value="" style="endArrow=classic;html=1;rounded=0;strokeWidth=4;strokeColor=#66CC00;" edge="1" parent="zSebhdD4SlKoql86wcFb-73">
          <mxGeometry width="50" height="50" relative="1" as="geometry">
            <mxPoint x="150" y="32" as="sourcePoint" />
            <mxPoint x="280" y="32" as="targetPoint" />
          </mxGeometry>
        </mxCell>
      </root>
    </mxGraphModel>
  </diagram>
</mxfile>
